<?xml version="1.0" standalone="no"?>
<!DOCTYPE svg PUBLIC "-//W3C//DTD SVG 20010904//EN"
 "http://www.w3.org/TR/2001/REC-SVG-20010904/DTD/svg10.dtd">
<svg version="1.0" xmlns="http://www.w3.org/2000/svg"
 width="448.000000pt" height="448.000000pt" viewBox="0 0 448.000000 448.000000"
 preserveAspectRatio="xMidYMid meet">
<metadata>
Created by potrace 1.11, written by Peter Selinger 2001-2013
</metadata>
<g transform="translate(0.000000,448.000000) scale(0.100000,-0.100000)"
fill="#000000" stroke="none">
<path d="M2250 3308 c-145 -64 -319 -110 -451 -117 -42 -2 -75 -40 -83 -97 -9
-60 -9 -58 -36 -169 -12 -49 -26 -97 -31 -106 -4 -9 -10 -27 -13 -40 -17 -86
-153 -418 -224 -547 -19 -35 -32 -65 -30 -67 2 -2 26 7 53 21 35 17 61 24 85
21 40 -5 61 4 185 83 113 71 194 110 228 110 17 0 40 -13 65 -39 32 -33 47
-40 93 -46 54 -6 75 -5 178 16 73 15 161 15 197 1 16 -6 49 -16 73 -22 43 -11
44 -12 20 -24 -14 -7 -37 -9 -54 -6 -44 9 -129 4 -224 -14 -120 -23 -195 -21
-255 9 -44 21 -51 22 -71 9 -15 -10 -21 -22 -18 -37 4 -19 -2 -24 -39 -34 -66
-18 -161 -85 -269 -190 -53 -53 -103 -100 -111 -104 -24 -15 -29 -9 -13 15 28
43 -14 43 -113 2 l-56 -24 -75 45 c-295 173 -453 396 -446 628 2 86 10 123 41
198 71 170 230 322 468 448 103 55 105 60 9 23 -245 -95 -398 -185 -518 -308
-127 -129 -177 -243 -171 -389 5 -134 58 -242 175 -357 99 -98 266 -203 424
-266 38 -14 65 -30 60 -34 -4 -4 -32 -15 -61 -25 -44 -14 -72 -35 -160 -121
-116 -114 -112 -120 28 -39 103 60 270 115 270 88 0 -3 -11 -26 -25 -50 -14
-23 -24 -43 -22 -43 3 0 20 6 38 14 60 26 124 78 237 197 96 99 122 121 184
149 54 25 86 33 131 34 84 1 82 -17 -3 -44 -114 -37 -235 -124 -395 -286 -132
-134 -166 -161 -224 -179 l-24 -7 22 23 c12 13 24 34 28 46 20 82 -121 66
-307 -35 -355 -192 -533 -278 -676 -325 -78 -26 -148 -47 -155 -47 -8 0 -27
-12 -44 -26 l-30 -25 65 5 c57 5 256 61 390 111 91 33 209 94 306 155 150 96
180 110 238 110 l51 -1 -35 -29 c-33 -27 -34 -30 -18 -46 13 -13 33 -18 77
-18 52 1 69 7 131 43 90 54 159 110 235 192 123 131 181 182 242 211 64 31
152 45 198 34 l28 -7 -30 -17 c-61 -35 -65 -39 -61 -62 4 -28 54 -56 123 -69
48 -9 187 -7 250 4 17 3 129 8 250 10 220 5 298 -3 350 -33 19 -11 19 -11 1
-12 -29 0 -86 -40 -86 -59 0 -40 91 -93 188 -111 78 -14 104 -17 217 -25 50
-3 115 -13 145 -21 30 -8 80 -22 110 -31 81 -23 220 -22 256 2 16 10 24 20 19
22 -6 2 -55 23 -110 47 -80 34 -104 41 -122 33 -16 -7 -46 -4 -110 12 -68 16
-115 20 -208 19 -130 -3 -209 11 -250 44 -26 20 -33 38 -15 38 6 0 10 -6 10
-14 0 -18 41 -24 100 -13 75 14 102 14 155 2 61 -15 98 -12 132 10 l25 16 -47
30 c-60 38 -124 50 -236 45 -85 -4 -89 -3 -131 26 -24 17 -46 33 -50 37 -4 3
31 7 78 8 61 1 93 7 111 18 l25 17 -24 24 c-20 21 -37 26 -94 29 -126 7 -212
27 -237 53 l-22 25 25 -6 c14 -3 61 -8 105 -12 64 -4 84 -2 100 10 18 15 19
17 3 43 -16 25 -22 27 -114 34 -109 8 -137 18 -50 18 36 0 69 6 86 16 26 16
27 19 15 48 -13 31 -13 31 -87 28 -48 -1 -91 4 -128 16 l-55 19 100 -1 c82 -1
105 2 128 18 21 14 26 24 21 40 -7 19 -7 66 -1 72 1 1 30 5 64 8 232 21 472
156 546 306 30 61 30 166 0 233 -51 111 -179 202 -350 249 -122 33 -363 28
-460 -9 -7 -3 -13 0 -13 5 0 6 -4 22 -10 37 -9 24 -11 25 -42 12 -43 -18 -119
-35 -193 -42 -33 -4 -66 -11 -73 -17 -24 -20 -28 -6 -31 92 -1 57 -5 58 -71
28z m116 -315 c4 -42 3 -63 -4 -63 -6 0 -10 8 -10 18 0 9 -2 35 -5 57 -4 22
-9 63 -11 90 l-5 50 15 -45 c8 -25 17 -73 20 -107z m-326 -43 c33 -82 33 -81
97 -59 75 25 79 24 48 -13 -14 -18 -38 -48 -52 -66 l-26 -33 25 -27 c56 -62
56 -62 -24 -42 -85 22 -82 24 -180 -69 -34 -33 -64 -58 -66 -56 -2 2 6 42 17
89 12 46 21 89 21 95 0 5 -28 13 -61 17 l-61 7 77 40 c75 39 78 42 113 113 20
41 39 70 42 66 4 -4 17 -32 30 -62z m889 15 c13 -30 27 -55 31 -55 4 0 32 5
61 10 30 6 69 13 88 16 l34 6 -51 -57 -51 -58 23 -36 c12 -20 25 -41 29 -47 4
-7 -17 -5 -60 6 l-66 17 -96 -57 c-88 -52 -131 -74 -131 -67 0 2 18 43 40 92
l40 90 -38 17 c-20 10 -50 23 -67 29 l-30 12 40 9 c22 5 50 11 62 14 31 6 78
49 93 84 7 16 15 30 19 30 3 0 17 -25 30 -55z m-377 -790 c30 -10 46 -11 64
-3 12 6 31 7 41 4 35 -14 -13 -34 -82 -35 -35 0 -90 -7 -122 -15 -96 -25 -236
-45 -278 -39 -22 3 -60 13 -84 24 -24 10 -49 19 -57 19 -13 0 -30 37 -21 46 3
3 23 -4 46 -15 53 -28 113 -27 236 3 151 37 179 38 257 11z m123 -184 c36 -10
65 -17 65 -14 0 2 7 -3 16 -12 9 -9 15 -17 13 -19 -2 -1 -60 -8 -129 -14 -69
-7 -177 -21 -240 -32 -180 -31 -292 -29 -319 4 -23 27 31 46 137 49 53 2 113
8 132 15 162 54 212 57 325 23z"/>
<path d="M3532 3232 c63 -32 121 -64 129 -70 8 -7 48 -38 89 -69 294 -223 375
-526 213 -803 -76 -129 -259 -285 -437 -371 -87 -42 -72 -49 25 -10 234 92
378 180 499 302 314 318 184 705 -320 955 -76 38 -290 124 -308 124 -2 0 47
-26 110 -58z"/>
<path d="M1887 2346 c-68 -41 -88 -56 -179 -138 -79 -71 -113 -90 -103 -59 5
17 -3 16 -79 -14 -46 -18 -100 -36 -118 -40 -18 -4 -43 -13 -56 -21 -23 -15
-82 -90 -82 -105 0 -10 67 11 157 50 73 31 109 39 98 21 -24 -39 102 41 199
125 118 103 150 124 185 119 17 -3 36 2 50 13 19 16 21 22 10 51 -6 17 -14 32
-18 32 -4 0 -33 -15 -64 -34z"/>
<path d="M3443 1467 c-76 -52 -15 -111 146 -141 198 -38 701 8 751 69 10 12
10 15 -1 16 -59 3 -121 12 -198 29 -89 19 -90 19 -133 0 -99 -44 -324 -51
-430 -15 -39 14 -47 21 -45 38 3 31 -48 33 -90 4z"/>
</g>
</svg>
